<svg xmlns="http://www.w3.org/2000/svg" version="1.1" xmlns:xlink="http://www.w3.org/1999/xlink" xmlns:svgjs="http://svgjs.dev/svgjs" width="1000" height="222" viewBox="0 0 1000 222"><g transform="matrix(1,0,0,1,-0.6060601704618307,-0.4960125557698376)"><svg viewBox="0 0 396 88" data-background-color="#ffffff" preserveAspectRatio="xMidYMid meet" height="222" width="1000" xmlns="http://www.w3.org/2000/svg" xmlns:xlink="http://www.w3.org/1999/xlink"><g id="tight-bounds" transform="matrix(1,0,0,1,0.24000017249716166,0.19661758967453125)"><svg viewBox="0 0 395.52 87.60676482065095" height="87.60676482065095" width="395.52"><g><svg viewBox="0 0 534.0074697764854 118.28141893502082" height="87.60676482065095" width="395.52"><g transform="matrix(1,0,0,1,0,16.34714255903689)"><svg viewBox="0 0 395.52 85.58713381694704" height="85.58713381694704" width="395.52"><g><svg viewBox="0 0 395.52 85.58713381694704" height="85.58713381694704" width="395.52"><g><svg viewBox="0 0 395.52 85.58713381694704" height="85.58713381694704" width="395.52"><g transform="matrix(1,0,0,1,0,0)"><svg width="395.52" viewBox="5.050000190734863 -34.45000076293945 161.95999145507812 35.04999923706055" height="85.58713381694704" data-palette-color="#f3a83c"><path d="M16.8 0L5.05 0 5.05-31.4 16.8-31.4Q20.25-31.4 22.53-30.26 24.8-29.13 25.93-27.26 27.05-25.4 27.05-23.2L27.05-23.2Q27.05-20.5 25.56-18.51 24.08-16.53 21.1-15.8L21.1-15.8Q23.03-15.5 24.49-14.44 25.95-13.38 26.78-11.84 27.6-10.3 27.6-8.55L27.6-8.55Q27.6-6.95 27.06-5.43 26.53-3.9 25.28-2.68 24.03-1.45 21.95-0.73 19.88 0 16.8 0L16.8 0ZM8.95-14L8.95-3.4 16.75-3.4Q20.33-3.4 21.89-4.9 23.45-6.4 23.45-8.75L23.45-8.75Q23.45-11.13 21.75-12.56 20.05-14 16.75-14L16.75-14 8.95-14ZM16.7-28.05L8.95-28.05 8.95-17.35 16.65-17.35Q19.58-17.35 21.31-18.79 23.05-20.23 23.05-22.85L23.05-22.85Q23.05-25.3 21.36-26.68 19.68-28.05 16.7-28.05L16.7-28.05ZM38.32-29.55L38.32-29.55Q37.12-29.55 36.42-30.24 35.72-30.93 35.72-32.05L35.72-32.05Q35.72-33.15 36.42-33.8 37.12-34.45 38.32-34.45L38.32-34.45Q39.52-34.45 40.22-33.8 40.92-33.15 40.92-32.05L40.92-32.05Q40.92-30.93 40.22-30.24 39.52-29.55 38.32-29.55ZM40.27 0L36.37 0 36.37-23.95 40.27-23.95 40.27 0ZM57.4-28.05L46.27-28.05 46.27-31.4 70.72-31.4 70.72-28.05 59.55-28.05 60.42-28.95 60.42 0 56.52 0 56.52-28.95 57.4-28.05ZM85.29-4.15L84.79-4.15 94.09-31.4 98.24-31.4 87.04 0 82.99 0 71.89-31.4 76.04-31.4 85.29-4.15ZM110.87 0.6L110.87 0.6Q107.77 0.6 105.33-0.99 102.89-2.58 101.48-5.4 100.07-8.22 100.07-11.9L100.07-11.9Q100.07-15.83 101.47-18.65 102.87-21.48 105.3-22.99 107.74-24.5 110.87-24.5L110.87-24.5Q113.59-24.5 115.52-23.4 117.44-22.3 118.62-20.43 119.79-18.55 120.25-16.19 120.72-13.83 120.52-11.3L120.52-11.3 103.22-11.3 103.22-13.7 117.94-13.7 116.79-12.95Q116.87-14.43 116.63-15.9 116.39-17.38 115.74-18.61 115.09-19.85 113.92-20.6 112.74-21.35 110.92-21.35L110.92-21.35Q108.62-21.35 107.07-20.18 105.52-19 104.74-17.09 103.97-15.18 103.97-12.95L103.97-12.95 103.97-11.35Q103.97-8.85 104.73-6.88 105.49-4.9 107.02-3.75 108.54-2.6 110.87-2.6L110.87-2.6Q113.19-2.6 114.69-3.73 116.19-4.85 116.52-7.05L116.52-7.05 120.57-7.05Q120.19-4.67 118.87-2.96 117.54-1.25 115.49-0.33 113.44 0.6 110.87 0.6ZM136.84 0.6L136.84 0.6Q133.36 0.6 131.04-0.39 128.71-1.38 127.51-3.11 126.31-4.85 126.24-7.1L126.24-7.1 129.99-7.1Q130.11-4.83 131.83-3.69 133.54-2.55 136.49-2.55L136.49-2.55Q138.04-2.55 139.34-3.05 140.64-3.55 141.41-4.42 142.19-5.3 142.19-6.4L142.19-6.4Q142.19-7.8 141.16-8.6 140.14-9.4 137.89-10L137.89-10 133.24-11.5Q130.21-12.45 128.6-14.11 126.99-15.78 126.99-18.1L126.99-18.1Q126.99-21 129.54-22.75 132.09-24.5 136.24-24.5L136.24-24.5Q140.64-24.5 143.06-22.7 145.49-20.9 145.59-18.2L145.59-18.2 141.74-18.2Q141.51-19.78 140.14-20.59 138.76-21.4 136.24-21.4L136.24-21.4Q133.81-21.4 132.45-20.31 131.09-19.23 131.09-17.9L131.09-17.9Q131.09-15.43 135.34-14.25L135.34-14.25 140.09-12.65Q143.16-11.73 144.8-10.23 146.44-8.72 146.44-6.4L146.44-6.4Q146.44-4.6 145.26-3 144.09-1.4 141.94-0.4 139.79 0.6 136.84 0.6ZM161.86 0.6L161.86 0.6Q159.91 0.6 158.36-0.15 156.81-0.9 155.91-2.4 155.01-3.9 155.01-6.15L155.01-6.15 155.01-30.55 158.86-30.55 158.86-6.25Q158.86-2.55 162.31-2.55L162.31-2.55Q163.34-2.55 164.3-2.78 165.26-3 166.46-3.45L166.46-3.45 167.01-0.65Q165.74-0.1 164.47 0.25 163.21 0.6 161.86 0.6ZM166.41-21.2L151.16-21.2 151.16-23.9 166.41-23.9 166.41-21.2Z" opacity="1" transform="matrix(1,0,0,1,0,0)" fill="#f3a83c" class="undefined-text-0" data-fill-palette-color="primary" id="text-0"></path></svg></g></svg></g></svg></g></svg></g><g transform="matrix(1,0,0,1,415.72506820296957,0)"><svg viewBox="0 0 118.28240157351588 118.28141893502082" height="118.28141893502082" width="118.28240157351588"><g><svg xmlns="http://www.w3.org/2000/svg" xmlns:xlink="http://www.w3.org/1999/xlink" version="1.1" x="0" y="0" viewBox="5 5.000749588012695 90 89.99925231933594" enable-background="new 0 0 100 100" xml:space="preserve" height="118.28141893502082" width="118.28240157351588" class="icon-icon-0" data-fill-palette-color="accent" id="icon-0"><path d="M91.519 41.964h-5.455c-0.945-4.25-2.624-8.211-4.891-11.771l3.867-3.87c1.161-1.162 1.262-3.014 0.229-4.291-1.137-1.406-2.267-2.668-3.45-3.852s-2.445-2.313-3.852-3.45c-1.274-1.03-3.129-0.936-4.291 0.229l-3.867 3.867c-3.56-2.266-7.523-3.945-11.773-4.89V8.481c0-1.642-1.24-3.023-2.872-3.196-3.541-0.379-6.787-0.379-10.328 0-1.632 0.173-2.872 1.554-2.872 3.196v5.456c-4.25 0.945-8.214 2.624-11.773 4.89l-3.867-3.867c-1.165-1.165-3.017-1.259-4.291-0.229-1.406 1.136-2.668 2.266-3.852 3.45s-2.313 2.445-3.45 3.852c-1.032 1.277-0.932 3.129 0.229 4.291l3.867 3.87c-2.267 3.56-3.945 7.521-4.891 11.771H8.481c-1.642 0-3.023 1.237-3.195 2.872C5.098 46.604 5 48.342 5 50c0 1.658 0.098 3.396 0.286 5.164 0.172 1.636 1.554 2.873 3.195 2.873h5.455c0.945 4.25 2.624 8.211 4.891 11.771l-3.867 3.87c-1.161 1.162-1.262 3.014-0.229 4.291 1.137 1.406 2.267 2.668 3.45 3.852 1.184 1.183 2.445 2.313 3.852 3.45 0.59 0.477 1.306 0.712 2.019 0.712 0.825 0 1.647-0.317 2.272-0.941l3.867-3.867c3.56 2.266 7.523 3.945 11.773 4.89v5.456c0 1.642 1.24 3.023 2.872 3.195C46.606 94.906 48.343 95 50 95s3.394-0.094 5.164-0.286c1.632-0.172 2.872-1.554 2.872-3.195v-5.456c4.25-0.945 8.214-2.624 11.773-4.89l3.867 3.867c0.625 0.625 1.447 0.941 2.272 0.941 0.713 0 1.429-0.235 2.019-0.712 1.406-1.136 2.668-2.267 3.852-3.45 1.184-1.184 2.313-2.445 3.45-3.852 1.032-1.277 0.932-3.129-0.229-4.291l-3.867-3.87c2.267-3.56 3.945-7.521 4.891-11.771h5.455c1.642 0 3.023-1.237 3.196-2.873C94.902 53.396 95 51.657 95 50c0-1.657-0.098-3.396-0.285-5.164C94.542 43.201 93.16 41.964 91.519 41.964zM50 77.321c-15.086 0-27.321-12.236-27.321-27.322 0-15.085 12.235-27.321 27.321-27.321S77.321 34.914 77.321 50C77.321 65.085 65.086 77.321 50 77.321z" fill="#fbeaab" data-fill-palette-color="accent"></path><path d="M50.791 47.665c-5.431-1.833-6.479-3.466-6.479-5.813 0-3.139 2.549-5.688 5.688-5.688 3.321 0 6.294 3.24 6.318 3.265l3.683-3.296c-0.176-0.176-3.435-3.779-7.961-4.696V27.5h-4.08v3.937c-4.885 0.948-8.576 5.254-8.576 10.415 0 7.176 6.636 9.417 9.825 10.484 5.439 1.846 6.479 3.465 6.479 5.82 0 3.133-2.549 5.682-5.688 5.682-3.321 0-6.294-3.227-6.318-3.252l-3.676 3.296c0.16 0.176 3.428 3.779 7.954 4.683V72.5h4.08v-3.93c4.885-0.954 8.576-5.255 8.576-10.415C60.616 50.985 53.98 48.731 50.791 47.665z" fill="#fbeaab" data-fill-palette-color="accent"></path></svg></g></svg></g></svg></g><defs></defs></svg><rect width="395.52" height="87.60676482065095" fill="none" stroke="none" visibility="hidden"></rect></g></svg></g></svg>